<svg width="412" height="423" viewBox="0 0 412 423" fill="none" xmlns="http://www.w3.org/2000/svg">
<ellipse cx="206" cy="211.5" rx="206" ry="211.5" fill="white"/>
<path d="M231.5 303.947H311.5V225H272.025V262.5H231.5V303.947ZM93.7875 208.231H129V165.5H178V129H135H93.7875V208.231ZM73.25 354C67.05 354 61.625 351.366 56.975 346.097C52.325 340.828 50 334.681 50 327.656V99.3438C50 92.3187 52.325 86.1719 56.975 80.9031C61.625 75.6344 67.05 73 73.25 73H336.75C342.95 73 348.375 75.6344 353.025 80.9031C357.675 86.1719 360 92.3187 360 99.3438V327.656C360 334.681 357.675 340.828 353.025 346.097C348.375 351.366 342.95 354 336.75 354H73.25ZM84 315.5H325.525V114.5H272.025H209.525H84V315.5Z" fill="#4F7FF8"/>
</svg>
