<svg width="412" height="423" viewBox="0 0 412 423" fill="none" xmlns="http://www.w3.org/2000/svg">
<ellipse cx="206" cy="211.5" rx="206" ry="211.5" fill="#1296DB"/>
<path d="M236.202 141.306L295.356 141.301V202.096H263.904V169.801L236.202 169.806V141.306ZM121.808 221.306H154.645L154.726 252.306H184.437V284.772H154.726H121.889L121.808 221.306ZM105.525 91C100.585 91 96.2625 93.2688 92.5575 97.8063C88.8525 102.344 87 107.637 87 113.688V310.312C87 316.363 88.8525 321.656 92.5575 326.194C96.2625 330.731 100.585 333 105.525 333H315.475C320.415 333 324.738 330.731 328.443 326.194C332.148 321.656 334 316.363 334 310.312V113.688C334 107.637 332.148 102.344 328.443 97.8063C324.738 93.2688 320.415 91 315.475 91H105.525ZM114.09 124.157H214.105H306.531V297.26H263.904H214.105H114.09V124.157Z" fill="white"/>
</svg>
