<svg width="73" height="67" viewBox="0 0 73 67" fill="none" xmlns="http://www.w3.org/2000/svg">
<path d="M64 5.88889H39C7.88886 5.88889 0.111084 0.333344 0.111084 0.333344C0.111084 0.333344 7.14998 20.3 34.4389 22.35C35.0166 22.4778 35.6111 22.5556 36.2222 22.5556H61.2222C65.8055 22.5556 72.3333 16.0278 72.3333 11.4445C72.3333 6.86112 68.5833 5.88889 64 5.88889Z" fill="#664500"/>
<path d="M66.7778 11.4444H50.1111C47.0555 11.4444 44.5555 13.9444 44.5555 17V39.2222C44.5555 42.2778 47.0555 44.7778 50.1111 44.7778C53.1667 44.7778 55.6667 42.2778 55.6667 39.2222V58.6667C55.6667 63.25 59.4167 67 64 67C68.5833 67 72.3333 63.25 72.3333 58.6667V17C72.3333 13.9444 69.8333 11.4444 66.7778 11.4444Z" fill="#88C9F9"/>
</svg>
