<svg width="275" height="53" viewBox="0 0 275 53" fill="none" xmlns="http://www.w3.org/2000/svg">
<g filter="url(#filter0_d_5_10)">
<path d="M10.1427 43.2778C11.7316 44.0667 13.4316 44.4444 15.0983 44.4444C19.176 44.4444 23.0983 42.2 25.0427 38.3C25.1205 38.1444 33.8094 22.2222 59.5538 22.2222C84.8872 22.2222 93.6316 37.5333 94.1205 38.4333C96.9094 43.8222 103.509 46.0222 108.965 43.2778C114.443 40.5333 116.676 33.8556 113.932 28.3667C113.354 27.2111 99.2983 0 59.5538 0C19.8205 0 5.75382 27.2 5.17605 28.3667C2.4316 33.8556 4.65382 40.5333 10.1427 43.2778Z" fill="#664500"/>
<path d="M264.509 43.2778C262.92 44.0667 261.22 44.4444 259.554 44.4444C255.476 44.4444 251.554 42.2 249.609 38.3C249.532 38.1444 240.843 22.2222 215.098 22.2222C189.765 22.2222 181.02 37.5333 180.532 38.4333C177.743 43.8222 171.143 46.0222 165.687 43.2778C160.209 40.5333 157.976 33.8556 160.72 28.3667C161.298 27.2111 175.354 0 215.098 0C254.832 0 268.898 27.2 269.476 28.3667C272.22 33.8556 269.998 40.5333 264.509 43.2778Z" fill="#664500"/>
<path d="M5.62326 28.5903L5.62411 28.5886C6.16592 27.4945 20.0994 0.5 59.5538 0.5C99.0189 0.5 112.942 27.5049 113.484 28.5903C116.105 33.8318 113.972 40.2097 108.741 42.8307L108.74 42.8311C103.533 45.4509 97.2292 43.3523 94.5645 38.2035L94.5646 38.2035L94.5599 38.1947C94.0204 37.2015 85.1365 21.7222 59.5538 21.7222C33.5587 21.7222 24.7266 37.8142 24.5955 38.0764L24.5952 38.0769C22.7389 41.8002 18.9944 43.9444 15.0983 43.9444C13.5072 43.9444 11.8837 43.5839 10.3655 42.8302C5.12445 40.2091 3.00232 33.8322 5.62326 28.5903ZM269.028 28.5886L269.029 28.5903C271.65 33.832 269.528 40.2087 264.287 42.8299C262.769 43.5838 261.145 43.9444 259.554 43.9444C255.658 43.9444 251.913 41.8002 250.057 38.0769L250.057 38.0764C249.926 37.8142 241.093 21.7222 215.098 21.7222C189.516 21.7222 180.632 37.2015 180.092 38.1946L180.088 38.2035C177.423 43.3523 171.12 45.4509 165.912 42.8311L165.911 42.8307C160.68 40.2097 158.547 33.8318 161.168 28.5903C161.71 27.5049 175.633 0.5 215.098 0.5C254.553 0.5 268.486 27.4945 269.028 28.5886Z" stroke="black"/>
</g>
<defs>
<filter id="filter0_d_5_10" x="0" y="0" width="274.652" height="52.4609" filterUnits="userSpaceOnUse" color-interpolation-filters="sRGB">
<feFlood flood-opacity="0" result="BackgroundImageFix"/>
<feColorMatrix in="SourceAlpha" type="matrix" values="0 0 0 0 0 0 0 0 0 0 0 0 0 0 0 0 0 0 127 0" result="hardAlpha"/>
<feOffset dy="4"/>
<feGaussianBlur stdDeviation="2"/>
<feComposite in2="hardAlpha" operator="out"/>
<feColorMatrix type="matrix" values="0 0 0 0 0 0 0 0 0 0 0 0 0 0 0 0 0 0 0.25 0"/>
<feBlend mode="normal" in2="BackgroundImageFix" result="effect1_dropShadow_5_10"/>
<feBlend mode="normal" in="SourceGraphic" in2="effect1_dropShadow_5_10" result="shape"/>
</filter>
</defs>
</svg>
