<svg width="312" height="156" viewBox="0 0 312 156" fill="none" xmlns="http://www.w3.org/2000/svg">
<g filter="url(#filter0_d_5_11)">
<path d="M270.32 13.7958C270.265 14.018 268.732 19.6625 265.143 27.9847C256.098 48.9292 233.387 87.2847 185.276 103.485C171.443 108.14 155.665 111.096 137.332 111.096C29.8982 111.096 4.57599 14.7625 4.33154 13.7847C2.85377 7.85137 6.45377 1.84026 12.3871 0.340256C18.3427 -1.15974 24.3538 2.44025 25.8871 8.37358C26.7204 11.6625 47.5427 88.8736 137.332 88.8736C227.12 88.8736 247.943 11.6625 248.765 8.3847C250.298 2.44026 256.309 -1.15973 262.265 0.351379C268.209 1.85138 271.809 7.86247 270.32 13.7958Z" fill="#664500"/>
<path d="M269.835 13.6741L269.835 13.6746L265.143 27.9847L264.684 27.7865C264.684 27.7866 264.683 27.7866 264.683 27.7867C255.665 48.6701 233.035 86.8756 185.116 103.011C171.333 107.65 155.609 110.596 137.332 110.596C83.7896 110.596 50.7349 86.6004 31.0228 62.4904C11.297 38.3637 4.92934 14.1143 4.81661 13.6634C3.40575 7.99779 6.84323 2.25765 12.5094 0.825062C18.196 -0.607084 23.9372 2.82927 25.4027 8.49755C25.8309 10.1868 31.2706 30.3881 47.8679 50.1782C64.4832 69.9898 92.2701 89.3736 137.332 89.3736C182.393 89.3736 210.18 69.9898 226.794 50.1796C243.388 30.3924 248.826 10.1953 249.249 8.50786C250.715 2.82861 256.456 -0.60659 262.142 0.836023L262.142 0.836183C267.82 2.26888 271.257 8.00916 269.835 13.6741Z" stroke="black"/>
</g>
<path d="M297.078 65.4555L264.233 31.5555C264.233 31.5555 256.678 26.6889 250.089 37.8667C241.422 52.5556 227.033 70.4778 206.378 84.2111C197.7 89.9778 182.611 97.4222 176.411 98.8556C168.244 100.733 172.1 109.567 172.1 109.567C178.6 108.156 183.778 106.222 183.778 106.222L187.067 109.511L217.356 139.8C236.556 159 272.911 162.022 295.133 139.8C317.356 117.578 316.289 84.6667 297.078 65.4555Z" fill="#E75B70"/>
<defs>
<filter id="filter0_d_5_11" x="0" y="0" width="274.656" height="119.096" filterUnits="userSpaceOnUse" color-interpolation-filters="sRGB">
<feFlood flood-opacity="0" result="BackgroundImageFix"/>
<feColorMatrix in="SourceAlpha" type="matrix" values="0 0 0 0 0 0 0 0 0 0 0 0 0 0 0 0 0 0 127 0" result="hardAlpha"/>
<feOffset dy="4"/>
<feGaussianBlur stdDeviation="2"/>
<feComposite in2="hardAlpha" operator="out"/>
<feColorMatrix type="matrix" values="0 0 0 0 0 0 0 0 0 0 0 0 0 0 0 0 0 0 0.25 0"/>
<feBlend mode="normal" in2="BackgroundImageFix" result="effect1_dropShadow_5_11"/>
<feBlend mode="normal" in="SourceGraphic" in2="effect1_dropShadow_5_11" result="shape"/>
</filter>
</defs>
</svg>
